{"title":"Ironclad *2011* [720p.BluRay.x264-miguel] [ENG]","uid":6540759,"size":5915287921,"categoryP":"video","categoryS":"hd___movies","magnet":"?xt=urn:btih:373d15a464744e27fa204281cc9bb8f7a1f0a5c8&amp;dn=Ironclad+%2A2011%2A+%5B720p.BluRay.x264-miguel%5D+%5BENG%5D&amp;tr=udp%3A%2F%2Ftracker.openbittorrent.com%3A80&amp;tr=udp%3A%2F%2Fopen.demonii.com%3A1337&amp;tr=udp%3A%2F%2Ftracker.coppersurfer.tk%3A6969&amp;tr=udp%3A%2F%2Fexodus.desync.com%3A6969","seeders":0,"leechers":0,"uploader":"miguel1983","files":-1,"time":1310677971,"description":" &lt;a href=&quot;http://img163.imageshack.us/img163/7003/92000583561362284855.jpg&quot; rel=&quot;nofollow&quot; target=&quot;_NEW&quot;&gt;http://img163.imageshack.us/img163/7003/92000583561362284855.jpg&lt;/a&gt;\n\nCountry.......: United Kingdom, Germany, USA\nGenre.........: Adventure, Action, Drama\nDate release..: 04.03.2011 [World]\nDirector......: Jonathan English\nWriters.......: Jonathan English, Erick Kastel\nDuration......: 121 min.\nMore..........: http://www.imdb.com/title/tt1233301\nTrailer.......: http://www.imdb.com/video/imdb/vi4273052697\nTrailer.......:\n\nPilot :\nIn 13th-century England, a small group of Knights Templar fight to defend Rochester Castle against the tyrannical King John. \n\nCats :\nKate Mara   \t ...  \tLady Isabel\nPaul Giamatti \t... \tKing John\nJason Flemyng \t... \tBeckett\nJames Purefoy \t... \tMarshall\nBrian Cox \t... \tAlbany\nCharles Dance \t... \tArchbishop Langton\nDerek Jacobi \t... \tCornhill\nMackenzie Crook \t... \tMarks\nVladimir Kulich \t... \tTiberius\nBree Condon \t... \tAgnes\nJamie Foreman \t... \tCoteral\nAneurin Barnard \t... \tGuy\nGuy Siner \t... \tCaptain Oaks\nSteffan Rhodri \t... \tCooper\nDaniel OMeara \t... \tPhipps \n\nData Technical :\n!!! SAMPLE !!!\nAudio.....: English\nSubtitles.: Polish .srt\nFormat                           : Matroska\nFile size                        : 5.46 GiB\nDuration                         : 2h 0mn\nOverall bit rate                 : 6 483 Kbps\nEncoded date                     : UTC 2011-07-09 20:21:43\nWriting application              : mkvmerge v4.7.0 ('Just Like You Imagined') built on Apr 21 2011 01:13:14\nWriting library                  : libebml v1.2.0 + libmatroska v1.1.0\nVideo\nID                               : 1\nFormat                           : AVC\nFormat/Info                      : Advanced Video Codec\nFormat profile                   : &lt;a class=&quot;__cf_email__&quot; href=&quot;/cdn-cgi/l/email-protection&quot; data-cfemail=&quot;266e4f414e666a120817&quot;&gt;[email&amp;#160;protected]&lt;/a&gt;&lt;script cf-hash='f9e31' type=&quot;text/javascript&quot;&gt;\n/* &lt;![CDATA[ */!function(){try{var t=&quot;currentScript&quot;in document?document.currentScript:function(){for(var t=document.getElementsByTagName(&quot;script&quot;),e=t.length;e--;)if(t[e].getAttribute(&quot;cf-hash&quot;))return t[e]}();if(t&amp;&amp;t.previousSibling){var e,r,n,i,c=t.previousSibling,a=c.getAttribute(&quot;data-cfemail&quot;);if(a){for(e=&quot;&quot;,r=parseInt(a.substr(0,2),16),n=2;a.length-n;n+=2)i=parseInt(a.substr(n,2),16)^r,e+=String.fromCharCode(i);e=document.createTextNode(e),c.parentNode.replaceChild(e,c)}}}catch(u){}}();/* ]]&gt; */&lt;/script&gt;\nFormat settings, CABAC           : Yes\nFormat settings, ReFrames        : 5 frames\nMuxing mode                      : Container profile=&lt;a class=&quot;__cf_email__&quot; href=&quot;/cdn-cgi/l/email-protection&quot; data-cfemail=&quot;04516a6f6a6b736a44302a35&quot;&gt;[email&amp;#160;protected]&lt;/a&gt;&lt;script cf-hash='f9e31' type=&quot;text/javascript&quot;&gt;\n/* &lt;![CDATA[ */!function(){try{var t=&quot;currentScript&quot;in document?document.currentScript:function(){for(var t=document.getElementsByTagName(&quot;script&quot;),e=t.length;e--;)if(t[e].getAttribute(&quot;cf-hash&quot;))return t[e]}();if(t&amp;&amp;t.previousSibling){var e,r,n,i,c=t.previousSibling,a=c.getAttribute(&quot;data-cfemail&quot;);if(a){for(e=&quot;&quot;,r=parseInt(a.substr(0,2),16),n=2;a.length-n;n+=2)i=parseInt(a.substr(n,2),16)^r,e+=String.fromCharCode(i);e=document.createTextNode(e),c.parentNode.replaceChild(e,c)}}}catch(u){}}();/* ]]&gt; */&lt;/script&gt;\nCodec ID                         : V_MPEG4/ISO/AVC\nDuration                         : 2h 0mn\nBit rate                         : 4 976 Kbps\nWidth                            : 1 280 pixels\nHeight                           : 720 pixels\nDisplay aspect ratio             : 16:9\nFrame rate                       : 24.000 fps\nColor space                      : YUV\nChroma subsampling               : 4:2:0\nBit depth                        : 8 bits\nScan type                        : Progressive\nBits/(Pixel*Frame)               : 0.225\nStream size                      : 4.08 GiB (75%)\nWriting library                  : x264 core 115 r2008 4c552d8\nAudio\nID                               : 2\nFormat                           : DTS\nFormat/Info                      : Digital Theater Systems\nMuxing mode                      : Header stripping\nCodec ID                         : A_DTS\nDuration                         : 2h 0mn\nBit rate mode                    : Constant\nBit rate                         : 1 510 Kbps\nChannel(s)                       : 6 channels\nChannel positions                : Front: L C R, Side: L R, LFE\nSampling rate                    : 48.0 KHz\nBit depth                        : 24 bits\nStream size                      : 1.27 GiB (23%)\n\nScreen : &lt;a href=&quot;\nhttp://img691.imageshack.us/img691/2001/ironclad2011s1.png&quot; rel=&quot;nofollow&quot; target=&quot;_NEW&quot;&gt;\nhttp://img691.imageshack.us/img691/2001/ironclad2011s1.png&lt;/a&gt; &lt;a href=&quot;\nhttp://img12.imageshack.us/img12/5810/ironclad2011s2.png&quot; rel=&quot;nofollow&quot; target=&quot;_NEW&quot;&gt;\nhttp://img12.imageshack.us/img12/5810/ironclad2011s2.png&lt;/a&gt; &lt;a href=&quot;\nhttp://img718.imageshack.us/img718/9523/ironclad2011s3.png&quot; rel=&quot;nofollow&quot; target=&quot;_NEW&quot;&gt;\nhttp://img718.imageshack.us/img718/9523/ironclad2011s3.png&lt;/a&gt; &lt;a href=&quot;\nhttp://img146.imageshack.us/img146/3250/ironclad2011s4.png&quot; rel=&quot;nofollow&quot; target=&quot;_NEW&quot;&gt;\nhttp://img146.imageshack.us/img146/3250/ironclad2011s4.png&lt;/a&gt; &lt;a href=&quot;\nhttp://img228.imageshack.us/img228/6640/ironclad2011s5.png&quot; rel=&quot;nofollow&quot; target=&quot;_NEW&quot;&gt;\nhttp://img228.imageshack.us/img228/6640/ironclad2011s5.png&lt;/a&gt;","torrent":{"xt":"urn:btih:373d15a464744e27fa204281cc9bb8f7a1f0a5c8","amp;dn":"Ironclad+%2A2011%2A+%5B720p.BluRay.x264-miguel%5D+%5BENG%5D","amp;tr":["udp%3A%2F%2Ftracker.openbittorrent.com%3A80","udp%3A%2F%2Fopen.demonii.com%3A1337","udp%3A%2F%2Ftracker.coppersurfer.tk%3A6969","udp%3A%2F%2Fexodus.desync.com%3A6969"],"infoHash":"373d15a464744e27fa204281cc9bb8f7a1f0a5c8","infoHashBuffer":{"type":"Buffer","data":[55,61,21,164,100,116,78,39,250,32,66,129,204,155,184,247,161,240,165,200]},"announce":[],"urlList":[]}}